<?xml version="1.0" standalone="no"?>
<!DOCTYPE svg PUBLIC "-//W3C//DTD SVG 20010904//EN"
 "http://www.w3.org/TR/2001/REC-SVG-20010904/DTD/svg10.dtd">
<svg version="1.0" xmlns="http://www.w3.org/2000/svg"
 width="1080.000000pt" height="1080.000000pt" viewBox="0 0 1080.000000 1080.000000"
 preserveAspectRatio="xMidYMid meet">

<g transform="translate(0.000000,1080.000000) scale(0.100000,-0.100000)"
fill="#000000" stroke="none">
<path d="M1154 10500 c-84 -12 -208 -55 -276 -96 -206 -125 -342 -361 -342
-594 0 -117 14 -181 66 -290 33 -69 56 -100 122 -166 l82 -81 -23 -34 c-42
-61 -120 -222 -152 -312 -63 -180 -75 -266 -75 -527 0 -228 1 -239 32 -380 41
-182 73 -281 129 -393 134 -272 306 -424 683 -605 481 -232 821 -316 1280
-316 511 0 855 86 1111 278 355 267 584 706 629 1207 11 126 2 306 -20 404 -6
27 -6 41 1 44 6 2 44 25 84 52 129 87 220 204 271 354 24 69 28 96 28 195 0
134 -20 215 -87 345 -52 101 -180 235 -277 287 -122 67 -188 83 -340 83 -122
0 -143 -3 -217 -28 -103 -36 -212 -106 -281 -181 l-52 -58 -133 65 c-334 165
-598 242 -915 268 -152 13 -357 3 -512 -25 -41 -7 -76 -13 -77 -12 -1 1 -8 34
-17 73 -23 112 -60 178 -145 264 -84 84 -140 119 -249 155 -83 28 -226 39
-328 24z m219 -245 c79 -16 163 -59 229 -115 50 -44 128 -152 128 -179 0 -12
-27 -25 -102 -50 -218 -72 -432 -201 -602 -365 -90 -86 -87 -86 -142 0 -144
225 -45 560 201 675 103 49 178 58 288 34z m1252 -325 c376 -36 706 -169 1015
-409 249 -193 460 -396 523 -502 60 -101 81 -183 74 -293 -3 -55 -14 -116 -27
-153 -23 -65 -67 -123 -94 -123 -31 0 -77 57 -137 170 -160 301 -295 419 -709
618 -303 147 -467 203 -710 244 -178 30 -427 30 -603 -1 -366 -64 -676 -199
-996 -435 l-64 -47 -49 48 c-46 45 -49 50 -43 86 26 172 285 394 676 581 161
77 297 126 450 160 263 59 478 76 694 56z m1648 -253 c256 -121 349 -408 214
-661 -32 -60 -125 -166 -146 -166 -7 0 -27 33 -45 73 -95 205 -329 473 -545
624 -9 7 85 95 127 120 71 42 119 53 222 50 86 -2 103 -6 173 -40z m-2261
-1579 c-3 -58 -1 -68 33 -123 51 -85 100 -131 175 -167 36 -18 66 -33 68 -34
2 -1 -9 -58 -23 -125 -15 -68 -28 -134 -31 -146 l-4 -22 -88 30 c-48 17 -101
40 -118 50 -72 44 -72 13 0 -57 83 -81 141 -106 257 -112 81 -4 107 -1 162 17
37 13 76 30 87 39 20 16 14 17 -112 17 -73 0 -140 3 -149 7 -15 6 -15 14 -2
80 7 40 21 106 31 147 l17 75 68 12 c164 31 257 111 257 224 l0 40 53 -26
c137 -69 250 -175 300 -282 26 -56 32 -82 35 -157 4 -78 0 -101 -23 -170 -47
-140 -126 -249 -241 -331 -174 -124 -464 -191 -654 -150 -264 56 -517 305
-586 576 -25 97 -15 270 21 373 25 71 32 82 88 127 33 27 87 63 118 80 61 32
183 69 234 69 l31 1 -4 -62z"/>
<path d="M6454 6758 c-3 -4 -10 -6 -15 -3 -5 4 -9 1 -9 -6 0 -7 -2 -10 -5 -7
-10 9 -121 -114 -164 -181 -110 -171 -157 -420 -132 -691 16 -165 61 -386 110
-540 22 -68 38 -126 36 -128 -2 -3 3 -11 11 -19 8 -9 13 -22 10 -29 -3 -8 -2
-14 2 -14 13 0 43 -70 36 -83 -4 -7 -4 -9 1 -5 6 6 63 -98 68 -126 1 -5 9 -17
17 -27 8 -9 40 -59 70 -109 30 -50 90 -138 132 -194 75 -101 76 -103 77 -162
0 -95 31 -152 98 -180 37 -16 120 -18 156 -5 22 9 125 91 113 91 -6 0 76 131
274 435 79 121 190 294 248 385 57 91 109 168 114 171 5 3 10 10 9 15 0 12
120 217 132 225 5 3 8 9 7 13 -1 4 25 62 58 129 33 67 73 154 88 192 15 39 30
72 33 75 3 3 6 10 6 15 1 25 17 75 25 75 4 0 7 6 7 13 -2 21 15 97 21 97 4 0
7 17 6 37 -1 21 2 50 7 66 4 15 4 27 -2 27 -5 0 -9 15 -9 33 0 56 -30 126 -74
172 -22 24 -45 44 -51 45 -5 0 -28 6 -50 12 -52 14 -144 -1 -220 -36 -30 -14
-59 -26 -63 -28 -4 -1 -15 -9 -25 -18 -10 -8 -20 -14 -23 -12 -2 1 -14 -7 -26
-18 -12 -11 -27 -20 -34 -20 -6 0 -15 -7 -18 -16 -3 -8 -10 -13 -15 -10 -5 3
-11 -1 -15 -9 -3 -8 -11 -15 -18 -15 -7 0 -19 -9 -26 -21 -7 -12 -16 -19 -19
-16 -3 3 -16 -7 -30 -24 -14 -16 -30 -30 -36 -30 -7 -1 -53 -45 -104 -99 -51
-53 -95 -96 -98 -94 -3 2 -3 1 0 -2 2 -4 -13 -28 -34 -53 -21 -25 -51 -65 -66
-88 -15 -24 -32 -43 -37 -43 -9 0 -145 274 -151 303 -1 7 -5 14 -9 17 -12 9
-98 200 -90 200 4 0 2 4 -5 8 -13 8 -125 242 -115 242 3 0 -13 14 -36 31 -41
30 -137 55 -148 37z m14 -460 c5 -7 12 -22 14 -33 1 -11 6 -22 9 -25 15 -12
69 -132 64 -140 -4 -6 -1 -10 5 -10 6 0 8 -4 5 -10 -3 -5 -2 -10 3 -10 8 0 60
-103 64 -130 2 -8 6 -17 9 -20 17 -13 69 -132 63 -143 -4 -7 -3 -9 1 -4 11 10
37 -51 28 -67 -3 -6 -3 -8 1 -4 4 4 25 -28 46 -70 37 -73 67 -112 122 -157 29
-24 127 -33 173 -15 24 9 139 105 125 105 -10 0 133 227 146 232 8 3 12 9 9
13 -3 5 7 18 21 29 15 12 23 21 18 21 -5 0 32 41 81 90 49 50 95 90 102 90 7
0 13 4 13 9 0 18 100 93 115 87 27 -10 -208 -459 -427 -818 -19 -32 -38 -55
-43 -50 -5 4 -6 2 -2 -3 6 -12 -96 -179 -104 -170 -3 3 -6 -1 -6 -8 0 -20
-119 -197 -127 -189 -4 4 -7 2 -6 -3 5 -22 -1 -36 -12 -29 -6 4 -8 3 -5 -3 8
-13 -47 -95 -58 -86 -4 5 -5 3 -2 -3 8 -14 -27 -66 -38 -57 -4 5 -5 3 -2 -3 7
-12 -30 -70 -68 -108 -22 -22 -25 -23 -38 -7 -20 24 -85 134 -89 151 -2 8 -6
17 -9 20 -11 8 -80 150 -73 150 3 0 -2 7 -10 16 -14 14 -21 38 -13 47 1 2 -6
12 -16 22 -10 9 -16 24 -13 31 3 8 1 14 -3 14 -12 0 -32 60 -25 71 3 5 0 9 -6
9 -7 0 -10 7 -6 15 3 8 1 15 -5 15 -6 0 -9 7 -5 15 3 8 1 15 -5 15 -6 0 -9 7
-5 15 3 8 2 15 -2 15 -10 0 -44 128 -37 140 3 4 1 10 -4 12 -13 4 -56 237 -72
383 -11 110 -7 324 8 348 4 6 6 22 4 35 -1 12 2 22 7 22 6 0 8 9 5 20 -3 11 0
20 6 20 5 0 8 7 5 15 -4 8 -1 15 5 15 6 0 8 6 5 14 -3 7 2 21 11 30 9 9 14 16
10 16 -3 0 -3 5 0 10 8 14 20 13 33 -2z"/>
<path d="M5115 6068 c-16 -9 -31 -15 -33 -13 -3 2 -13 -7 -24 -20 -11 -14 -24
-22 -30 -19 -6 4 -8 2 -4 -4 3 -6 2 -13 -4 -17 -21 -13 -53 -92 -130 -327 -85
-259 -95 -282 -109 -260 -4 8 -11 13 -15 12 -10 -2 -66 33 -66 42 0 4 -7 8
-15 8 -8 0 -15 5 -15 11 0 5 -4 8 -8 5 -5 -3 -20 5 -33 17 -13 12 -26 21 -29
21 -11 -3 -50 20 -50 28 0 5 -4 6 -10 3 -5 -3 -10 -1 -10 5 0 6 -4 8 -10 5 -5
-3 -10 -1 -10 4 0 6 -3 10 -7 9 -14 -4 -53 13 -53 23 0 5 -3 8 -7 7 -5 -1 -45
10 -91 25 -95 31 -200 36 -275 13 -26 -8 -47 -12 -47 -10 0 3 -10 -4 -22 -15
-11 -11 -24 -19 -27 -16 -4 2 -22 -19 -41 -47 -30 -44 -34 -58 -36 -119 0 -38
1 -67 4 -64 3 2 14 -14 25 -37 28 -57 119 -146 256 -252 63 -49 175 -143 250
-210 242 -217 485 -422 516 -437 18 -9 30 -22 30 -34 0 -26 60 -75 94 -76 88
-4 114 17 143 118 12 40 25 73 30 73 5 0 7 4 4 8 -7 12 15 92 26 92 5 0 7 4 4
9 -7 10 25 125 36 129 4 2 6 8 3 12 -6 9 25 131 35 140 3 3 5 14 6 25 2 40 48
240 56 243 5 2 6 7 3 11 -2 5 4 68 15 142 14 92 20 178 19 274 -2 192 -3 205
-10 205 -4 0 -10 16 -14 36 -10 54 -49 135 -81 169 -43 45 -72 58 -145 64 -52
5 -72 3 -94 -11z m109 -518 c-1 -162 -22 -304 -79 -530 -38 -149 -135 -473
-146 -486 -11 -13 -20 -6 -110 76 -26 25 -74 68 -105 95 -168 148 -621 616
-630 650 -9 35 23 68 64 68 41 0 77 -20 362 -207 274 -180 290 -187 357 -146
35 21 54 51 73 118 7 23 17 42 22 42 5 0 7 4 4 8 -7 11 43 176 54 180 5 2 6
10 3 18 -3 8 0 14 7 14 6 0 9 4 6 8 -6 11 53 206 65 210 4 2 5 10 2 18 -3 8 1
14 8 14 7 0 9 3 6 7 -4 3 -2 12 5 20 23 28 32 -20 32 -177z"/>
<path d="M7004 3715 c-147 -32 -268 -99 -379 -210 -64 -64 -90 -99 -128 -175
-69 -138 -91 -236 -84 -380 8 -189 67 -332 194 -470 l62 -67 -25 -74 c-64
-185 -90 -393 -80 -634 18 -445 107 -683 342 -920 308 -310 750 -460 1419
-481 599 -20 1090 91 1445 324 111 73 272 234 335 335 92 150 154 326 192 542
12 74 17 157 17 315 0 224 -11 312 -62 475 l-18 60 78 83 c136 145 201 310
199 512 -2 214 -82 397 -238 540 -88 81 -159 124 -270 163 -82 29 -97 31 -228
32 -119 0 -151 -3 -215 -23 -191 -60 -304 -149 -443 -346 -13 -19 -15 -19
-118 2 -342 71 -660 76 -1019 16 -99 -16 -156 -22 -158 -15 -9 28 -89 140
-134 188 -58 60 -159 131 -234 163 -130 56 -315 75 -450 45z m1792 -419 c468
-63 865 -244 1108 -507 87 -94 153 -192 217 -324 110 -228 145 -409 136 -715
-4 -155 -11 -220 -31 -317 -57 -271 -157 -464 -319 -620 -236 -227 -583 -371
-1027 -428 -69 -9 -222 -19 -340 -22 -647 -17 -1127 96 -1455 343 -88 65 -228
210 -279 287 -81 123 -138 283 -167 472 -20 129 -18 529 4 645 35 186 114 382
213 532 63 95 199 235 303 314 247 186 637 315 1072 353 135 12 424 5 565 -13z"/>
<path d="M7290 2525 c-270 -75 -464 -326 -511 -660 -20 -141 14 -277 92 -376
17 -22 30 -41 28 -43 -2 -1 -19 -8 -36 -15 -87 -35 -109 -106 -49 -159 88 -77
286 -59 329 31 14 28 22 32 84 43 99 17 173 48 255 107 212 152 342 446 317
713 -15 150 -108 283 -239 342 -70 31 -190 39 -270 17z m247 -271 c70 -53 92
-138 54 -211 -43 -85 -146 -118 -225 -71 -63 37 -81 69 -81 143 0 71 17 103
76 143 28 20 44 23 92 20 37 -3 67 -11 84 -24z"/>
<path d="M9293 2471 c-211 -72 -314 -295 -258 -559 47 -226 158 -404 323 -516
72 -49 187 -95 238 -96 19 0 45 -11 68 -29 44 -35 130 -56 190 -47 136 22 198
117 115 178 l-28 21 31 45 c49 71 70 137 76 238 8 156 -46 348 -139 490 -49
76 -159 182 -231 224 -120 69 -275 89 -385 51z m167 -263 c62 -32 90 -77 90
-146 0 -97 -65 -164 -159 -164 -149 0 -223 163 -124 273 55 61 120 73 193 37z"/>
<path d="M8145 2068 c-64 -35 -72 -99 -20 -156 36 -40 130 -92 203 -111 l42
-12 0 -159 c0 -88 -1 -160 -2 -160 -2 0 -27 7 -56 14 -102 28 -180 90 -225
182 -22 46 -52 59 -64 27 -10 -26 43 -117 98 -168 196 -183 526 -135 648 95
34 64 35 90 1 90 -14 0 -26 -14 -42 -47 -43 -92 -152 -172 -255 -188 l-43 -7
0 159 0 158 83 29 c95 32 169 74 192 110 22 33 10 92 -26 128 l-27 28 -244 0
c-157 -1 -250 -4 -263 -12z"/>
</g>
</svg>
